<?xml version="1.0" standalone="no"?>
<!DOCTYPE svg PUBLIC "-//W3C//DTD SVG 20010904//EN"
 "http://www.w3.org/TR/2001/REC-SVG-20010904/DTD/svg10.dtd">
<svg version="1.0" xmlns="http://www.w3.org/2000/svg"
 width="512.000000pt" height="512.000000pt" viewBox="0 0 512.000000 512.000000"
 preserveAspectRatio="xMidYMid meet">

<g transform="translate(0.000000,512.000000) scale(0.100000,-0.100000)"
fill="#000000" stroke="none">
<path d="M2015 4493 c-27 -1 -131 -8 -230 -14 -352 -21 -481 -63 -663 -217
-82 -70 -167 -191 -239 -341 -121 -253 -232 -390 -431 -530 -113 -81 -159
-130 -196 -212 -36 -78 -47 -164 -36 -278 11 -112 31 -185 71 -261 33 -62 65
-98 166 -187 125 -110 223 -258 307 -462 78 -191 155 -283 399 -472 531 -411
1431 -754 2252 -858 536 -68 840 -45 1074 80 75 39 174 141 206 211 72 157 78
311 21 548 -47 199 -60 326 -52 517 7 163 42 403 77 517 11 39 40 109 64 157
85 168 112 293 95 442 -17 149 -35 181 -174 320 -135 135 -153 163 -192 308
-61 227 -182 350 -444 450 -52 19 -133 54 -180 77 -47 23 -127 55 -179 72
-168 54 -510 107 -839 130 -136 9 -744 11 -877 3z m946 -73 c296 -23 563 -67
724 -119 l90 -29 -57 1 c-65 1 -89 -13 -72 -41 7 -10 30 -19 60 -23 27 -4 94
-12 149 -19 203 -25 361 -89 471 -192 75 -71 118 -149 149 -272 33 -136 63
-184 196 -316 146 -145 162 -178 163 -345 1 -128 -19 -205 -89 -344 -54 -108
-79 -191 -110 -356 -64 -350 -58 -609 23 -910 35 -134 37 -307 3 -403 -44
-126 -111 -201 -236 -263 -99 -49 -197 -74 -350 -90 -460 -47 -1292 109 -1925
361 -488 194 -854 410 -1103 649 -121 117 -166 180 -222 313 -52 125 -107 225
-168 307 l-40 54 28 -7 c69 -17 81 -18 95 -1 22 27 1 46 -73 65 -257 67 -398
271 -384 555 7 152 73 260 207 338 69 40 214 84 328 100 113 15 146 33 121 63
-11 14 -25 15 -84 10 -38 -4 -96 -13 -127 -20 -32 -7 -58 -11 -58 -9 0 3 23
31 52 62 73 80 147 197 216 343 95 200 179 308 309 394 138 91 254 121 538
139 261 15 994 19 1176 5z"/>
<path d="M2195 4300 c-301 -34 -665 -206 -929 -438 -43 -38 -52 -75 -19 -80
15 -2 47 17 100 60 176 143 382 259 570 322 219 72 361 87 603 62 234 -24 422
-29 664 -18 224 11 251 16 230 50 -10 16 -44 17 -405 18 -240 0 -421 5 -464
12 -104 17 -260 22 -350 12z"/>
<path d="M2156 4154 c-244 -44 -537 -192 -735 -371 -39 -35 -53 -54 -48 -66
12 -30 47 -18 120 42 207 169 437 281 674 327 168 33 531 13 776 -43 95 -21
472 -23 597 -2 131 22 349 17 429 -9 46 -15 69 -18 83 -11 51 27 -6 65 -144
93 -98 20 -174 20 -323 -1 -81 -11 -192 -17 -340 -17 -199 -1 -234 2 -365 26
-80 15 -192 32 -249 38 -143 14 -380 11 -475 -6z"/>
<path d="M2295 4024 c-189 -19 -332 -52 -462 -107 -152 -64 -343 -210 -327
-250 11 -29 43 -19 107 36 230 195 517 273 924 248 157 -9 190 -9 201 3 10 10
11 19 3 33 -8 16 -25 21 -88 26 -116 10 -313 16 -358 11z"/>
<path d="M3290 3979 c-85 -13 -124 -46 -80 -69 14 -7 58 -6 157 6 146 17 221
14 353 -12 140 -29 247 -97 331 -211 43 -57 62 -65 79 -32 9 17 6 29 -20 69
-69 107 -195 196 -335 236 -71 20 -381 28 -485 13z"/>
<path d="M2599 3894 c-11 -13 -10 -19 1 -37 7 -12 27 -44 44 -71 17 -27 40
-87 52 -135 18 -74 24 -86 42 -87 38 -2 44 17 27 97 -18 86 -61 182 -99 222
-30 31 -48 34 -67 11z"/>
<path d="M3306 3823 c-30 -46 -76 -180 -76 -221 0 -92 57 -76 74 20 4 20 20
69 36 109 34 81 37 114 14 123 -23 9 -21 9 -48 -31z"/>
<path d="M1966 3660 c-267 -42 -467 -168 -427 -271 29 -77 116 -89 292 -42 91
25 121 28 244 28 126 -1 148 -4 220 -29 44 -15 112 -47 151 -72 77 -47 115
-54 164 -29 46 24 70 62 70 113 0 41 -4 48 -63 107 -73 71 -227 152 -337 178
-84 20 -239 28 -314 17z m484 -156 c81 -42 160 -116 160 -149 0 -14 -11 -32
-26 -44 l-27 -21 -44 26 c-79 46 -156 82 -214 98 l-56 16 18 53 c10 28 18 62
19 74 l0 21 53 -20 c28 -11 81 -35 117 -54z m-803 -79 c10 -30 9 -35 -5 -35
-35 0 -47 16 -34 44 16 35 27 33 39 -9z"/>
<path d="M3664 3605 c-113 -25 -274 -104 -423 -209 -40 -28 -69 -42 -75 -37
-6 5 -29 14 -50 21 -35 11 -41 11 -53 -6 -20 -27 -17 -34 30 -54 94 -42 120
-85 132 -215 11 -129 59 -190 180 -226 51 -16 68 -26 79 -48 16 -31 10 -75
-17 -128 -32 -60 -134 -119 -228 -130 -42 -5 -55 -2 -79 16 -16 11 -41 21 -55
21 -38 0 -34 -42 8 -73 43 -33 84 -40 153 -28 119 22 237 102 275 186 25 54
25 138 -1 180 -20 33 -46 48 -118 70 -93 28 -121 67 -129 179 l-6 71 125 43
c171 58 255 68 394 48 189 -27 256 8 256 137 1 144 -183 229 -398 182z m250
-80 c46 -23 73 -57 82 -102 5 -26 1 -37 -21 -58 -21 -22 -32 -26 -57 -21 -17
3 -75 9 -130 13 l-99 6 6 42 c6 37 -3 71 -33 127 -5 10 46 16 133 14 57 -1 91
-7 119 -21z"/>
<path d="M1393 3499 c-29 -11 -64 -34 -78 -50 l-25 -31 20 -28 c21 -30 116
-74 147 -68 10 2 19 13 21 25 3 19 -6 27 -50 46 l-53 24 50 24 c51 24 69 54
43 70 -17 11 -14 11 -75 -12z"/>
<path d="M4226 3461 c-56 -7 -78 -29 -57 -55 11 -13 27 -15 90 -10 218 18 395
-69 448 -219 28 -80 25 -255 -5 -322 -33 -73 -77 -113 -169 -156 -44 -21 -85
-43 -89 -50 -11 -19 27 -41 60 -34 98 19 209 102 251 189 76 157 47 405 -62
526 -99 110 -261 156 -467 131z"/>
<path d="M754 3395 c-161 -35 -256 -124 -312 -293 -33 -100 -38 -296 -9 -377
35 -100 157 -220 216 -213 45 5 39 41 -11 71 -104 62 -150 144 -156 284 -11
225 82 396 242 449 28 9 90 22 140 28 76 9 91 14 94 30 2 10 -2 22 -10 27 -19
13 -124 9 -194 -6z"/>
<path d="M2010 3332 c-8 -2 -41 -29 -72 -59 -68 -64 -138 -98 -231 -113 -103
-16 -202 1 -411 72 -155 52 -192 61 -275 65 -193 11 -308 -59 -372 -226 -34
-88 -38 -252 -7 -355 25 -87 47 -111 74 -84 16 16 16 20 0 70 -57 182 -34 352
62 451 102 106 206 108 499 11 199 -66 265 -77 396 -72 141 6 198 30 293 120
50 48 74 78 74 94 0 26 -8 34 -30 26z"/>
<path d="M4414 3315 c-27 -20 -9 -45 46 -64 67 -24 115 -78 139 -156 36 -117
24 -164 -59 -237 -85 -74 -48 -122 42 -54 88 68 118 151 94 265 -24 115 -74
190 -155 230 -55 28 -85 32 -107 16z"/>
<path d="M4130 3165 c-19 -9 -55 -33 -80 -54 -86 -72 -128 -79 -200 -31 -49
33 -87 39 -97 14 -14 -36 107 -114 177 -114 46 0 103 28 163 79 83 69 157 76
305 25 140 -49 155 13 16 66 -77 30 -232 38 -284 15z"/>
<path d="M1082 3127 c-6 -7 -16 -34 -22 -61 -13 -61 -31 -94 -67 -127 -36 -34
-77 -54 -128 -64 -72 -13 -94 -37 -60 -65 13 -11 29 -10 85 2 l70 16 73 -142
c192 -376 440 -666 740 -867 348 -233 658 -309 1428 -350 512 -27 865 42 1036
203 70 67 99 129 119 258 23 145 24 470 1 600 -24 142 -95 381 -118 405 -19
19 -21 19 -34 2 -7 -10 -18 -46 -24 -80 -33 -187 -195 -339 -421 -396 -323
-81 -612 -74 -1110 25 -518 104 -828 209 -1346 458 -178 86 -180 88 -176 117
9 61 -18 100 -46 66z m136 -220 c59 -30 169 -82 246 -117 l138 -64 -4 -105
c-2 -58 -10 -117 -17 -130 -11 -21 -18 -23 -54 -17 -70 11 -157 43 -277 104
l-115 57 -47 90 c-74 141 -73 136 -26 189 22 25 42 46 44 46 2 0 53 -24 112
-53z m845 -341 l227 -71 0 -33 c0 -45 -29 -180 -45 -212 -7 -14 -22 -34 -34
-44 -19 -18 -26 -18 -79 -7 -76 17 -229 75 -323 122 -84 42 -123 80 -139 137
-11 40 -13 183 -4 219 l6 22 82 -31 c44 -17 183 -63 309 -102z m2170 67 c54
-124 84 -262 67 -307 -17 -46 -136 -86 -157 -54 -4 7 -27 66 -49 132 l-41 119
37 33 c21 19 53 57 71 84 19 27 37 50 40 50 4 0 18 -26 32 -57z m-210 -220
c34 -89 51 -164 44 -195 -5 -17 -25 -35 -66 -57 -77 -41 -96 -40 -110 2 -22
67 -61 240 -56 246 6 6 144 68 156 70 3 1 18 -29 32 -66z m-2609 25 c72 -23
143 -71 159 -105 9 -20 7 -42 -12 -116 -13 -51 -26 -96 -29 -100 -6 -12 -61
43 -131 128 -65 79 -151 203 -151 217 0 13 94 -1 164 -24z m1229 -19 l257 -52
0 -68 c0 -116 -36 -238 -75 -253 -77 -29 -399 55 -477 124 l-41 36 21 80 c11
43 24 103 27 132 4 29 12 52 18 52 7 0 128 -23 270 -51z m1145 -133 c26 -112
28 -169 6 -190 -8 -9 -47 -25 -86 -37 -60 -19 -85 -21 -162 -15 -50 3 -103 9
-118 12 l-27 6 -3 132 c-2 72 -2 133 -1 134 2 5 301 49 339 51 l31 1 21 -94z
m-470 39 c10 -4 12 -36 10 -137 l-3 -133 -55 -18 c-72 -24 -222 -33 -289 -17
-28 6 -53 15 -56 19 -2 4 5 35 15 69 11 35 22 99 26 145 3 45 7 87 9 93 2 7
53 6 166 -4 90 -7 170 -15 177 -17z m-1516 -76 c252 -111 388 -196 388 -244 0
-45 -45 -156 -96 -237 l-24 -37 -36 15 c-112 47 -310 177 -412 270 l-42 39 35
108 c19 59 37 112 40 117 12 19 55 10 147 -31z m2492 -286 c-13 -104 -43 -181
-84 -218 l-23 -20 8 30 c4 17 10 68 14 114 6 77 9 85 39 112 45 40 53 37 46
-18z m-1834 21 c90 -17 235 -65 292 -96 59 -34 65 -61 39 -191 -12 -62 -26
-116 -31 -120 -25 -27 -539 76 -608 122 -11 6 -4 26 31 92 25 46 53 110 62
141 14 49 20 57 43 61 56 8 92 7 172 -9z m1678 -111 c4 -36 -22 -163 -40 -199
-9 -19 -33 -35 -87 -56 -40 -16 -75 -27 -77 -25 -3 2 6 28 20 58 30 69 40 113
38 170 -2 51 13 65 85 79 52 10 58 8 61 -27z m-967 -19 c83 -27 85 -33 58
-181 -12 -70 -25 -131 -28 -135 -5 -6 -361 19 -368 25 -1 2 4 27 13 57 8 30
17 93 21 138 6 78 8 84 32 94 79 30 184 31 272 2z m356 -9 c37 -14 75 -33 85
-42 26 -24 22 -94 -11 -183 l-27 -75 -147 -3 c-135 -2 -147 -1 -147 15 0 37
39 243 49 262 31 56 94 65 198 26z m383 -3 c20 -16 22 -24 16 -65 -4 -26 -26
-84 -49 -130 l-42 -82 -80 -12 c-44 -6 -85 -12 -92 -12 -8 -1 -3 24 13 72 21
59 25 84 20 139 -4 62 -3 69 17 80 56 30 165 36 197 10z"/>
<path d="M2532 2923 c-35 -14 -78 -40 -97 -57 -58 -55 -69 -162 -24 -220 25
-32 86 -51 132 -42 80 15 69 66 -14 66 -60 0 -79 18 -79 72 0 52 38 89 129
127 70 28 96 55 71 71 -23 15 -50 11 -118 -17z"/>
<path d="M2285 2844 c-54 -43 -121 -67 -193 -70 -80 -4 -92 -8 -92 -29 0 -31
76 -48 86 -20 4 10 21 15 53 15 62 0 107 14 165 50 32 20 46 36 44 48 -4 22
-38 26 -63 6z"/>
<path d="M2735 2784 c-47 -24 -65 -45 -65 -75 0 -39 15 -44 56 -20 44 26 84
27 135 1 45 -24 79 -19 79 11 0 25 -32 57 -83 80 -51 23 -83 24 -122 3z"/>
<path d="M3617 2753 c-17 -16 -4 -44 38 -81 64 -57 175 -81 209 -46 34 33 6
62 -47 49 -32 -8 -103 23 -136 59 -24 25 -50 33 -64 19z"/>
<path d="M1266 1734 c-25 -24 -7 -45 116 -132 465 -327 953 -525 1483 -603
234 -34 555 -45 555 -19 0 4 98 10 218 13 178 4 238 10 332 30 227 48 373 129
450 249 51 78 54 140 6 122 -8 -3 -29 -30 -46 -60 -83 -148 -266 -241 -560
-286 -116 -18 -678 -18 -820 0 -607 77 -1056 249 -1565 603 -146 101 -150 103
-169 83z"/>
<path d="M1530 1735 c-22 -26 0 -50 118 -125 314 -201 732 -368 1113 -444 466
-94 955 -67 1234 68 107 52 225 153 225 192 0 33 -39 32 -71 -2 -65 -71 -234
-156 -374 -187 -184 -42 -610 -48 -845 -12 -455 69 -852 212 -1254 451 -69 41
-127 74 -129 74 -3 0 -10 -7 -17 -15z"/>
<path d="M2963 1357 c-11 -18 10 -45 40 -51 68 -14 275 -18 361 -7 92 11 119
23 114 50 -3 13 -35 15 -257 16 -139 0 -255 -3 -258 -8z"/>
</g>
</svg>
